<?xml version="1.0" encoding="iso-8859-1"?>
<!-- Generator: Adobe Illustrator 19.0.0, SVG Export Plug-In . SVG Version: 6.00 Build 0)  -->
<svg version="1.1" id="Capa_1" xmlns="http://www.w3.org/2000/svg" xmlns:xlink="http://www.w3.org/1999/xlink" x="0px" y="0px"
	 viewBox="0 0 512 512" style="enable-background:new 0 0 512 512;" xml:space="preserve">
<path style="fill:#FFDE46;" d="M320.304,49.756v-30c-33.753,0-61.212,27.566-61.212,61.449v4.551
	c-0.997-0.066-1.998-0.111-3.009-0.111c-1.079,0-2.147,0.05-3.209,0.124v-4.565c0-33.883-27.46-61.449-61.213-61.449v30
	c17.274,0,31.328,14.108,31.328,31.449v18.633c-6.655,6.966-11.171,16.052-12.399,26.252l-0.116,0.966l2.495,267.659l0.1,0.827
	c2.136,17.746,24.135,50.024,30.826,59.494l12.088,17.274l12.299-17.292c6.696-9.504,28.714-41.884,30.921-59.518l0.108-0.865
	l2.352-266.759l0.01-1.005l-0.125-0.998c-1.277-10.199-5.857-19.277-12.571-26.22V81.205
	C288.976,63.864,303.03,49.756,320.304,49.756z"/>
<path style="fill:#FFBB00;" d="M320.304,49.756v-30c-33.753,0-61.212,27.566-61.212,61.449v4.551
	c-0.997-0.066-1.998-0.111-3.009-0.111c-0.033,0-0.066,0.002-0.1,0.002l0.052,69.476l-0.052,317.186l12.3-17.292
	c6.696-9.504,28.714-41.884,30.921-59.518l0.108-0.865l2.352-266.759l0.01-1.005l-0.125-0.998
	c-1.277-10.199-5.857-19.277-12.571-26.22V81.205C288.977,63.864,303.03,49.756,320.304,49.756z"/>
<path style="fill:#00DDC1;" d="M497.457,408.118c-4.361-52.805-18.561-95.121-42.208-125.773l-398.278,0.148
	c-23.589,30.697-37.71,73.04-41.973,125.853c-3.12,38.655,0.412,68.397,0.564,69.644l1.431,11.751l11.718,1.333
	c0.714,0.082,10.595,1.171,25.91,1.171c11.904,0,27.09-0.658,43.802-2.96c51.665-7.116,93.374-26.78,120.617-56.865
	c16.479-18.198,28.885-41.145,37.111-68.532c8.277,27.471,20.749,50.47,37.307,68.687c27.299,30.034,69.045,49.619,120.722,56.639
	c16.436,2.232,31.39,2.878,43.202,2.878c15.658,0,25.792-1.136,26.515-1.22l11.715-1.355l1.41-11.753
	C497.173,476.515,500.649,446.767,497.457,408.118z"/>
<path style="fill:#00CCB2;" d="M497.457,408.118c-4.361-52.805-18.561-95.121-42.208-125.773l-199.268,0.074v82.012
	c0.055-0.183,0.115-0.361,0.17-0.544c8.277,27.471,20.749,50.47,37.307,68.687c27.299,30.034,69.045,49.619,120.722,56.639
	c16.436,2.232,31.39,2.878,43.202,2.878c15.658,0,25.792-1.136,26.515-1.22l11.715-1.355l1.41-11.753
	C497.173,476.515,500.649,446.767,497.457,408.118z"/>
<path style="fill:#00DDC1;" d="M506.581,78.59l-1.756-9.413l-9.246-2.362c-5.599-1.432-137.899-34.239-206.84,35.16
	c-14.958,15.057-25.451,33.483-32.706,53.15c-7.295-19.737-17.844-38.227-32.887-53.313C154.076,32.541,21.838,65.598,16.241,67.039
	L7,69.419l-1.738,9.417c-1.091,5.91-25.929,145.529,42.687,214.342c34.962,35.062,86.099,43.906,128.813,43.906
	c41.673,0,78.952-9.356,78.952-9.356s37.856,9.433,79.265,9.433c42.829,0,94.261-8.864,129.312-44.148l0,0
	C532.781,224.07,507.683,84.497,506.581,78.59z"/>
<path style="fill:#00CCB2;" d="M506.581,78.59l-1.756-9.413l-9.246-2.362c-5.599-1.432-137.899-34.239-206.84,35.16
	c-14.958,15.057-25.451,33.483-32.706,53.15l-0.052,172.673c0,0,37.589,9.364,78.997,9.364c42.829,0,94.261-8.864,129.312-44.148
	l0,0C532.781,224.07,507.683,84.497,506.581,78.59z"/>
<g>
	<path style="fill:#00465F;" d="M506.581,78.59l-1.756-9.413l-3.899-0.996l3.891,1.002l1.738,9.417
		c0.976,5.286,20.938,117.53-23.952,190.412c-66.833,15.343-149.42-7.117-166.915-12.301l-59.706,71.086l1.47,0.376
		c2.752,0.704,36.119,8.989,77.527,8.989c42.829,0,94.261-8.864,129.312-44.148l0,0C532.781,224.07,507.683,84.497,506.581,78.59z"
		/>
	<path style="fill:#00465F;" d="M29.482,269.316c5.299,8.603,11.491,17.665,18.735,24.93
		c34.962,35.062,86.099,43.906,128.813,43.906c41.673,0,78.952-10.356,78.952-10.356l-59.585-70.781
		C179.462,262.053,96.666,284.74,29.482,269.316z"/>
</g>
<path style="fill:#002C3C;" d="M483.002,269.041c-66.833,15.343-149.818-7.147-167.314-12.331l-59.706,71.086
	c0,0,37.589,10.364,78.997,10.364c42.829,0,94.261-8.864,129.312-44.148v-1C474.889,282.344,483.002,269.041,483.002,269.041z"/>
<g>
	<path style="fill:#00CCB2;" d="M196.13,256.946c0,0,23.305-94.936,4.428-173.062C128.732,38.891,21.274,65.743,16.241,67.039
		L7,69.419l-1.738,9.417c-0.976,5.286-20.938,117.53,23.952,190.412C104.851,286.612,196.13,256.946,196.13,256.946z"/>
	<path style="fill:#00CCB2;" d="M315.689,256.71c0,0-23.305-94.936-4.428-173.062c71.826-44.993,179.283-18.141,184.316-16.845
		l9.241,2.38l1.738,9.417c0.976,5.286,20.938,117.53-23.952,190.412C406.967,286.376,315.689,256.71,315.689,256.71z"/>
</g>
<g>
	<path style="fill:#00607F;" d="M101.677,116.646c-25.268,0-45.824,20.636-45.824,46.001s20.557,46.001,45.824,46.001
		s45.825-20.636,45.825-46.001S126.945,116.646,101.677,116.646z"/>
	<path style="fill:#00607F;" d="M410.579,116.646c-25.268,0-45.824,20.636-45.824,46.001s20.557,46.001,45.824,46.001
		c25.268,0,45.824-20.636,45.824-46.001S435.847,116.646,410.579,116.646z"/>
</g>
<path style="fill:#00AB94;" d="M315.689,256.71c0,0-23.305-94.936-4.428-173.062c71.826-44.993,179.283-18.141,184.316-16.845
	l9.241,2.38l1.738,9.417c0.976,5.286,21.336,117.56-23.553,190.442C407.365,286.405,315.689,256.71,315.689,256.71z"/>
<path style="fill:#00CCB2;" d="M200.558,83.884L200.558,83.884L200.558,83.884z"/>
<path style="fill:#00465F;" d="M410.579,116.646c-25.268,0-45.824,20.636-45.824,46.001s20.557,46.001,45.824,46.001
	c25.268,0,45.824-20.636,45.824-46.001S435.847,116.646,410.579,116.646z"/>
<g>
	<path style="fill:#00607F;" d="M42.877,358.681c-7.191,0.06-14.177,1.008-20.88,2.72c-3.31,14.576-5.649,30.234-6.998,46.944
		c-3.12,38.655,0.412,68.397,0.564,69.644l1.431,11.751l11.718,1.333c0.714,0.082,10.595,1.171,25.91,1.171
		c11.904,0,27.09-0.658,43.802-2.96c11.924-1.642,23.311-3.962,34.119-6.915c2.173-8.474,3.306-17.401,3.23-26.618
		C135.329,401.719,93.738,358.259,42.877,358.681z"/>
	<path style="fill:#00607F;" d="M490.412,361.356c-6.922-1.824-14.119-2.808-21.646-2.856
		c-50.524-0.324-91.757,42.515-92.095,95.683c-0.061,9.557,1.403,19.286,3.938,28.333c10.647,2.86,21.851,5.106,33.573,6.698
		c16.436,2.232,31.39,2.878,43.202,2.878c15.658,0,25.792-1.136,26.515-1.22l11.715-1.355l1.41-11.753
		c0.15-1.248,3.626-30.996,0.434-69.645C496.083,391.476,493.729,375.878,490.412,361.356z"/>
</g>
<path style="fill:#00465F;" d="M490.412,361.356c-6.922-1.824-14.119-2.808-21.646-2.856c-50.524-0.324-91.757,42.515-92.095,95.683
	c-0.061,9.557,1.403,19.286,3.938,28.333c10.647,2.86,21.851,5.106,33.573,6.698c16.436,2.232,31.39,2.878,43.202,2.878
	c15.658,0,25.792-1.136,26.515-1.22l11.715-1.355l1.41-11.753c0.15-1.248,3.626-30.996,0.434-69.645
	C496.083,391.476,493.729,375.878,490.412,361.356z"/>
<g>
</g>
<g>
</g>
<g>
</g>
<g>
</g>
<g>
</g>
<g>
</g>
<g>
</g>
<g>
</g>
<g>
</g>
<g>
</g>
<g>
</g>
<g>
</g>
<g>
</g>
<g>
</g>
<g>
</g>
</svg>
